<svg 
 xmlns="http://www.w3.org/2000/svg"
 xmlns:xlink="http://www.w3.org/1999/xlink"
 width="67px" height="67px">
<path fill-rule="evenodd"  fill="rgb(255, 255, 255)"
 d="M24.364,12.181 C24.784,12.181 25.165,12.011 25.440,11.737 L31.977,5.198 L31.977,47.203 C31.977,47.205 31.977,47.205 31.977,47.205 C31.977,48.045 32.659,48.726 33.500,48.726 C34.341,48.726 35.023,48.045 35.023,47.205 L35.023,47.203 L35.023,5.198 L41.560,11.737 C41.836,12.011 42.215,12.181 42.636,12.181 C43.477,12.181 44.159,11.500 44.159,10.659 C44.159,10.239 43.989,9.857 43.713,9.582 L34.577,0.446 C34.302,0.171 33.921,-0.000 33.500,-0.000 C33.079,-0.000 32.698,0.171 32.423,0.446 L23.287,9.582 C23.011,9.857 22.841,10.239 22.841,10.659 C22.841,11.500 23.523,12.181 24.364,12.181 ZM63.954,15.227 L57.864,15.227 L39.591,15.227 C38.750,15.227 38.068,15.909 38.068,16.749 C38.068,17.591 38.750,18.272 39.591,18.272 L63.954,18.272 L63.954,24.363 L39.591,24.363 C38.750,24.363 38.068,25.045 38.068,25.885 C38.068,26.727 38.750,27.408 39.591,27.408 L57.864,27.408 L57.864,63.953 L9.136,63.953 L9.136,27.408 L27.409,27.408 C28.250,27.408 28.932,26.727 28.932,25.885 C28.932,25.045 28.250,24.363 27.409,24.363 L3.045,24.363 L3.045,18.272 L27.409,18.272 C28.250,18.272 28.932,17.591 28.932,16.749 C28.932,15.909 28.250,15.227 27.409,15.227 L9.136,15.227 L3.045,15.227 C1.364,15.227 -0.000,16.590 -0.000,18.272 L-0.000,24.363 C-0.000,26.045 1.364,27.408 3.045,27.408 L6.091,27.408 L6.091,63.953 C6.091,65.635 7.454,67.000 9.136,67.000 L57.864,67.000 C59.545,67.000 60.909,65.635 60.909,63.953 L60.909,27.408 L63.954,27.408 C65.636,27.408 67.000,26.045 67.000,24.363 L67.000,18.272 C67.000,16.590 65.636,15.227 63.954,15.227 Z"/>
</svg>