<svg 
 xmlns="http://www.w3.org/2000/svg"
 xmlns:xlink="http://www.w3.org/1999/xlink"
 width="67px" height="67px">
<path fill-rule="evenodd"  fill="rgb(255, 255, 255)"
 d="M64.543,13.271 L63.260,14.553 L63.248,14.541 L55.634,22.154 L55.616,22.138 C54.241,23.510 52.342,24.359 50.245,24.359 C46.044,24.359 42.638,20.953 42.638,16.752 C42.638,14.655 43.487,12.758 44.859,11.383 L42.704,9.228 C40.775,11.153 39.577,13.809 39.577,16.752 C39.577,22.643 44.353,27.419 50.245,27.419 C53.189,27.419 55.846,26.221 57.772,24.292 L57.787,24.309 L63.451,18.645 C64.596,22.855 64.053,26.893 61.522,29.482 L53.360,37.836 C52.281,38.938 50.703,39.596 49.148,39.596 C49.085,39.595 43.930,39.242 38.782,36.014 L38.769,36.044 C38.534,35.895 38.271,35.785 37.971,35.785 C37.455,35.785 37.021,36.059 36.746,36.453 L36.691,36.422 L13.438,62.172 C12.335,63.274 10.813,63.954 9.130,63.954 C5.766,63.954 3.039,61.229 3.039,57.864 C3.039,56.182 3.721,54.659 4.823,53.557 L30.489,30.401 L30.445,30.355 C30.841,30.080 31.118,29.642 31.118,29.124 C31.118,28.793 30.991,28.505 30.813,28.257 L30.820,28.248 C26.411,22.392 26.256,18.038 30.054,13.921 L38.189,5.598 C40.252,3.488 42.947,3.045 44.847,3.045 L44.852,3.045 C46.004,3.045 47.189,3.216 48.380,3.523 L42.689,9.212 L44.842,11.365 L52.457,3.751 L52.445,3.739 L53.783,2.403 C50.815,0.834 47.730,-0.000 44.852,-0.000 C44.850,-0.000 44.849,-0.000 44.847,-0.000 C41.455,-0.000 38.353,1.121 36.081,3.446 L27.916,11.799 C22.547,17.592 23.967,23.524 27.607,28.892 L2.670,51.404 C1.016,53.058 -0.007,55.342 -0.007,57.864 C-0.007,62.911 4.084,67.000 9.130,67.000 C11.654,67.000 13.938,65.978 15.592,64.325 L38.286,39.245 C43.450,42.154 48.370,42.642 49.136,42.642 C51.364,42.642 53.736,41.758 55.467,39.987 L63.630,31.634 C67.885,27.280 68.010,19.952 64.543,13.271 ZM9.130,59.386 C9.971,59.386 10.653,58.705 10.653,57.864 C10.653,57.024 9.971,56.341 9.130,56.341 C8.710,56.341 8.330,56.512 8.054,56.787 C7.778,57.062 7.607,57.445 7.607,57.864 C7.607,58.705 8.289,59.386 9.130,59.386 Z"/>
</svg>