<svg 
 xmlns="http://www.w3.org/2000/svg"
 xmlns:xlink="http://www.w3.org/1999/xlink"
 width="67px" height="67px">
<path fill-rule="evenodd"  fill="rgb(255, 255, 255)"
 d="M22.149,43.986 C21.620,42.621 21.318,41.143 21.318,39.590 C21.318,32.863 26.773,27.409 33.500,27.409 C35.052,27.409 36.531,27.711 37.896,28.240 L40.998,26.347 C38.783,25.090 36.228,24.363 33.500,24.363 C25.090,24.363 18.273,31.182 18.273,39.590 C18.273,42.320 18.999,44.874 20.256,47.088 L22.149,43.986 ZM19.056,54.035 L36.731,42.822 L47.944,25.147 L30.270,36.361 L19.056,54.035 ZM32.423,38.514 C33.018,37.919 33.982,37.919 34.577,38.514 C35.171,39.109 35.171,40.073 34.577,40.667 C33.982,41.262 33.018,41.262 32.423,40.667 C31.828,40.073 31.828,39.109 32.423,38.514 ZM44.851,35.195 C45.381,36.560 45.682,38.038 45.682,39.590 C45.682,46.318 40.228,51.772 33.500,51.772 C31.948,51.772 30.469,51.471 29.104,50.943 L26.002,52.836 C28.217,54.092 30.772,54.818 33.500,54.818 C41.910,54.818 48.727,48.001 48.727,39.590 C48.727,36.863 48.001,34.309 46.744,32.093 L44.851,35.195 ZM59.386,6.090 L25.886,6.090 C25.045,6.090 24.364,6.773 24.364,7.614 C24.364,8.455 25.045,9.136 25.886,9.136 L59.386,9.136 C60.227,9.136 60.909,8.455 60.909,7.614 C60.909,6.773 60.227,6.090 59.386,6.090 ZM60.909,-0.000 L6.091,-0.000 C2.727,-0.000 -0.000,2.727 -0.000,6.090 L-0.000,60.909 C-0.000,64.272 2.727,67.000 6.091,67.000 L60.909,67.000 C64.273,67.000 67.000,64.272 67.000,60.909 L67.000,6.090 C67.000,2.727 64.273,-0.000 60.909,-0.000 ZM63.954,60.909 C63.954,62.591 62.591,63.954 60.909,63.954 L6.091,63.954 C4.409,63.954 3.045,62.591 3.045,60.909 L3.045,15.227 L63.954,15.227 L63.954,60.909 ZM63.954,12.182 L3.045,12.182 L3.045,6.090 C3.045,4.409 4.409,3.045 6.091,3.045 L60.909,3.045 C62.591,3.045 63.954,4.409 63.954,6.090 L63.954,12.182 ZM13.704,6.090 C12.864,6.090 12.182,6.773 12.182,7.614 C12.182,8.455 12.864,9.136 13.704,9.136 C14.545,9.136 15.227,8.455 15.227,7.614 C15.227,6.773 14.545,6.090 13.704,6.090 ZM19.795,6.090 C18.955,6.090 18.273,6.773 18.273,7.614 C18.273,8.455 18.955,9.136 19.795,9.136 C20.636,9.136 21.318,8.455 21.318,7.614 C21.318,6.773 20.636,6.090 19.795,6.090 ZM7.614,6.090 C6.773,6.090 6.091,6.773 6.091,7.614 C6.091,8.455 6.773,9.136 7.614,9.136 C8.454,9.136 9.136,8.455 9.136,7.614 C9.136,6.773 8.454,6.090 7.614,6.090 Z"/>
</svg>