<svg 
 xmlns="http://www.w3.org/2000/svg"
 xmlns:xlink="http://www.w3.org/1999/xlink"
 width="35px" height="35px">
<path fill-rule="evenodd"  fill="rgb(255, 255, 255)"
 d="M17.500,-0.000 C27.165,-0.000 35.000,7.835 35.000,17.500 C35.000,27.165 27.165,35.000 17.500,35.000 C7.835,35.000 -0.000,27.165 -0.000,17.500 C-0.000,7.835 7.835,-0.000 17.500,-0.000 Z"/>
<path fill-rule="evenodd"  fill="rgb(25, 6, 41)"
 d="M25.859,15.948 L20.796,21.006 C21.210,22.179 21.986,26.173 16.373,31.795 C16.364,31.805 16.356,31.815 16.346,31.825 C16.155,32.016 15.846,32.019 15.651,31.832 C15.648,31.829 15.645,31.826 15.642,31.823 C15.494,31.675 15.453,31.447 15.548,31.254 C15.567,31.215 17.305,27.620 16.084,25.712 L14.831,26.963 C14.801,26.994 14.767,27.020 14.729,27.042 C14.639,27.095 12.461,28.305 9.565,25.412 C6.669,22.520 7.881,20.344 7.933,20.253 C7.955,20.216 7.981,20.182 8.012,20.151 L9.264,18.900 C7.354,17.680 3.755,19.417 3.717,19.436 C3.523,19.531 3.294,19.490 3.147,19.342 C3.127,19.322 3.110,19.302 3.093,19.279 C2.952,19.082 2.974,18.811 3.146,18.640 C8.790,13.002 12.799,13.779 13.976,14.193 L19.039,9.136 C23.031,5.148 29.233,5.004 29.495,5.000 C29.630,4.998 29.760,5.050 29.855,5.145 C29.950,5.240 30.002,5.370 30.000,5.504 C29.996,5.766 29.851,11.960 25.859,15.948 ZM23.572,11.422 C22.482,10.333 20.715,10.333 19.625,11.422 C18.535,12.511 18.535,14.276 19.625,15.364 C20.715,16.453 22.482,16.453 23.572,15.364 C24.662,14.276 24.662,12.510 23.572,11.422 ZM5.216,24.902 C5.713,24.073 6.418,23.304 7.322,22.918 C7.282,23.030 7.233,23.139 7.189,23.249 C6.866,24.062 6.672,24.908 6.544,25.771 C6.470,26.264 6.430,26.763 6.402,27.261 C6.390,27.481 6.381,27.700 6.375,27.919 C6.372,28.069 6.368,28.288 6.368,28.439 C6.368,28.507 6.454,28.610 6.539,28.611 C7.532,28.627 8.543,28.559 9.523,28.389 C9.927,28.318 10.325,28.235 10.720,28.128 C11.183,28.003 11.618,27.821 12.066,27.656 C11.878,28.083 11.608,28.448 11.298,28.794 C10.038,30.127 8.122,30.751 6.328,30.869 C5.933,30.895 5.537,30.900 5.143,30.873 C4.704,30.843 4.316,30.567 4.165,30.150 C4.059,29.857 4.079,29.487 4.082,29.181 C4.090,28.628 4.143,28.075 4.246,27.531 C4.420,26.610 4.732,25.708 5.216,24.902 Z"/>
</svg>